<svg width="186" height="41" viewBox="0 0 186 41" fill="none" xmlns="http://www.w3.org/2000/svg">
<g clip-path="url(#clip0_54_425)">
<path d="M6.5608 34.1247V0H0V39.9464H23.7372V34.1247H6.5608Z" fill="#9D00FF"/>
<path d="M52.5571 26.6491C52.6702 25.8515 52.7268 25.072 52.7268 24.3107C52.6904 21.4958 52.0523 19.0403 50.8165 16.9483C49.5786 14.8562 47.8864 13.2387 45.7379 12.0978C43.5873 10.9569 41.1055 10.3875 38.2906 10.3875C35.4756 10.3875 33.0504 11.0054 30.8998 12.2412C28.7512 13.477 27.0772 15.2278 25.8777 17.4915C24.6803 19.7551 24.0805 22.3883 24.0805 25.3951C24.0805 28.4019 24.6985 30.9685 25.9363 33.2119C27.1721 35.4574 28.9229 37.1981 31.1866 38.4339C33.4502 39.6698 36.1036 40.2877 39.1468 40.2877C42.6463 40.2877 45.5662 39.3366 47.9066 37.4344C50.245 35.5322 51.6807 33.0989 52.2138 30.1304H46.0508C45.6328 31.7661 44.7767 33.0322 43.4823 33.9248C42.1899 34.8193 40.5926 35.2676 38.6904 35.2676C36.2934 35.2676 34.371 34.5245 32.9272 33.0403C31.4814 31.5581 30.6817 29.5408 30.5303 26.9924V26.6491H52.5571ZM33.2968 17.2047C34.7608 15.9689 36.5014 15.351 38.5187 15.351C40.6875 15.351 42.4847 15.9507 43.9104 17.1482C45.338 18.3477 46.1841 20.0116 46.4507 22.142H30.7585C30.9866 20.0883 31.8327 18.4426 33.2968 17.2047Z" fill="#9D00FF"/>
<path d="M52.5571 10.7287V16.1506H70.8745V10.7287H52.5571ZM63.8553 0.0484619H57.6357V10.7287L63.8553 6.6133V0.0484619ZM66.8802 34.5245C65.7757 34.5245 64.9962 34.2862 64.5398 33.8117C64.0835 33.3351 63.8553 32.5274 63.8553 31.3864V16.1506L57.6357 19.9631V32.0145C57.6357 34.7143 58.2718 36.7114 59.546 38.0058C60.8202 39.3002 62.8476 39.9464 65.6242 39.9464H71.559V34.5245H66.8802Z" fill="#9D00FF"/>
<path d="M104.2 9.53124C102.564 6.52446 100.223 4.18607 97.1803 2.51205C94.1372 0.838022 90.5791 0 86.5102 0H73.7844V39.9464H86.5102C90.5791 39.9464 94.1372 39.1084 97.1803 37.4343C100.223 35.7603 102.564 33.4118 104.2 30.3869C105.835 27.3639 106.653 23.8927 106.653 19.9732C106.653 16.0537 105.835 12.536 104.2 9.53124ZM96.4392 30.3869C94.117 32.9555 90.8073 34.2398 86.5102 34.2398H80.3472V5.70663H86.5102C90.8073 5.70663 94.117 6.99092 96.4392 9.55951C98.7594 12.1261 99.9206 15.5993 99.9206 19.9732C99.9206 24.3471 98.7594 27.8203 96.4392 30.3869Z" fill="#9D00FF"/>
<path d="M137.468 26.6491C137.581 25.8515 137.64 25.072 137.64 24.3107C137.601 21.4958 136.963 19.0403 135.727 16.9483C134.491 14.8562 132.797 13.2387 130.649 12.0978C128.498 10.9569 126.016 10.3875 123.201 10.3875C120.386 10.3875 117.961 11.0054 115.811 12.2412C113.662 13.477 111.988 15.2278 110.791 17.4915C109.591 19.7551 108.991 22.3883 108.991 25.3951C108.991 28.4019 109.611 30.9685 110.847 33.2119C112.083 35.4574 113.834 37.1981 116.097 38.4339C118.361 39.6698 121.014 40.2877 124.058 40.2877C127.557 40.2877 130.477 39.3366 132.817 37.4344C135.156 35.5322 136.592 33.0989 137.125 30.1304H130.962C130.544 31.7661 129.687 33.0322 128.395 33.9248C127.101 34.8193 125.503 35.2676 123.601 35.2676C121.204 35.2676 119.282 34.5245 117.838 33.0403C116.392 31.5581 115.593 29.5408 115.441 26.9924V26.6491H137.468ZM118.208 17.2047C119.674 15.9689 121.412 15.351 123.43 15.351C125.598 15.351 127.396 15.9507 128.823 17.1482C130.249 18.3477 131.095 20.0116 131.361 22.142H115.669C115.897 20.0883 116.744 18.4426 118.208 17.2047Z" fill="#9D00FF"/>
<path d="M182.434 13.4972C180.417 11.4234 177.812 10.3875 174.616 10.3875C172.257 10.3875 170.242 10.8519 168.568 11.7848C166.894 12.7157 165.543 14.0202 164.515 15.6943C163.679 13.9051 162.479 12.5744 160.92 11.698C159.362 10.8236 157.554 10.3875 155.499 10.3875C151.886 10.4238 149.033 11.8131 146.941 14.5513L146.254 10.7287H140.891V39.9464H147.054V24.3107C147.054 21.6856 147.672 19.5936 148.907 18.0326C150.145 16.4737 151.809 15.6943 153.901 15.6943C155.993 15.6943 157.449 16.3505 158.495 17.6631C159.541 18.9736 160.064 20.9243 160.064 23.5111V39.9464H166.284V24.1391C166.284 21.514 166.904 19.4502 168.14 17.9478C169.375 16.4454 171.059 15.6943 173.19 15.6943C175.205 15.6943 176.728 16.3586 177.756 17.6914C178.781 19.0221 179.296 20.9627 179.296 23.5111V39.9464H185.459V23.4545C185.459 18.8888 184.45 15.5691 182.434 13.4972Z" fill="#9D00FF"/>
</g>
<defs>
<clipPath id="clip0_54_425">
<rect width="185.459" height="40.2877" fill="white"/>
</clipPath>
</defs>
</svg>
