<svg width="39" height="39" viewBox="0 0 39 39" fill="none" xmlns="http://www.w3.org/2000/svg">
<g clip-path="url(#clip0_574_20223)">
<rect x="0.54541" y="0.636719" width="38.1818" height="38.1818" rx="19.0909" fill="#FDF6C3"/>
<path d="M13.9092 27.3635V12.0908H20.1472C21.205 12.0908 22.0962 12.2581 22.8207 12.5926C23.5452 12.9272 24.0886 13.3926 24.4508 13.989C24.8276 14.5708 25.016 15.2472 25.016 16.0181C25.016 16.789 24.8493 17.4363 24.516 17.9599C24.1828 18.4835 23.7408 18.8908 23.1902 19.1817C22.654 19.4581 22.0672 19.6181 21.4296 19.6617L21.7557 19.4217C22.4512 19.4508 23.067 19.6399 23.6032 19.989C24.1538 20.3235 24.5813 20.7745 24.8855 21.3417C25.2043 21.909 25.3637 22.5272 25.3637 23.1963C25.3637 24.0108 25.1681 24.7308 24.7769 25.3563C24.4001 25.9817 23.835 26.4763 23.0815 26.8399C22.3425 27.189 21.4369 27.3635 20.3646 27.3635H13.9092ZM16.8435 24.9635H19.8864C20.6834 24.9635 21.2992 24.7817 21.7339 24.4181C22.1686 24.0545 22.386 23.5308 22.386 22.8472C22.386 22.1635 22.1614 21.6326 21.7122 21.2545C21.263 20.8617 20.6399 20.6654 19.8429 20.6654H16.8435V24.9635ZM16.8435 18.4617H19.6691C20.437 18.4617 21.0239 18.2872 21.4296 17.9381C21.8353 17.589 22.0382 17.0945 22.0382 16.4545C22.0382 15.829 21.8353 15.3417 21.4296 14.9926C21.0239 14.629 20.4298 14.4472 19.6473 14.4472H16.8435V18.4617Z" fill="#F7CD40"/>
</g>
<defs>
<clipPath id="clip0_574_20223">
<rect x="0.63623" y="0.727539" width="38.1818" height="38.1818" rx="19.0909" fill="white"/>
</clipPath>
</defs>
</svg>
