<svg width="39" height="39" viewBox="0 0 39 39" fill="none" xmlns="http://www.w3.org/2000/svg">
<g clip-path="url(#clip0_574_20218)">
<rect x="-0.090332" y="0.636719" width="38.1818" height="38.1818" rx="19.0909" fill="#DAFDDF"/>
<path d="M19.3193 27.8408C17.7797 27.8408 16.4454 27.5145 15.3164 26.8619C14.202 26.1948 13.3442 25.2738 12.7431 24.0991C12.1419 22.9099 11.8413 21.5394 11.8413 19.9876C11.8413 18.4358 12.1419 17.0653 12.7431 15.876C13.3589 14.6868 14.224 13.7586 15.3384 13.0915C16.4527 12.4244 17.7797 12.0908 19.3193 12.0908C21.1961 12.0908 22.7284 12.5477 23.9161 13.4613C25.1038 14.375 25.8516 15.6658 26.1595 17.3336H22.8824C22.6917 16.5214 22.2959 15.8905 21.6947 15.441C21.0935 14.9769 20.2944 14.7448 19.2973 14.7448C18.3736 14.7448 17.5744 14.9624 16.9 15.3975C16.2401 15.818 15.7343 16.4199 15.3824 17.203C15.0451 17.9862 14.8765 18.9144 14.8765 19.9876C14.8765 21.0608 15.0451 21.989 15.3824 22.7721C15.7343 23.5408 16.2401 24.1354 16.9 24.5559C17.5744 24.9765 18.3736 25.1868 19.2973 25.1868C20.2944 25.1868 21.0935 24.9765 21.6947 24.5559C22.3105 24.1354 22.7137 23.5408 22.9044 22.7721H26.1595C25.8662 24.3529 25.1184 25.5929 23.9161 26.4921C22.7284 27.3912 21.1961 27.8408 19.3193 27.8408Z" fill="#4BB078"/>
</g>
<defs>
<clipPath id="clip0_574_20218">
<rect x="0.000488281" y="0.727539" width="38.1818" height="38.1818" rx="19.0909" fill="white"/>
</clipPath>
</defs>
</svg>
