<svg width="39" height="39" viewBox="0 0 39 39" fill="none" xmlns="http://www.w3.org/2000/svg">
<g clip-path="url(#clip0_574_20213)">
<rect x="0.272949" y="0.636719" width="38.1818" height="38.1818" rx="19.0909" fill="#D7FFE2"/>
<path d="M19.3638 38.8185C29.9074 38.8185 38.4547 30.2712 38.4547 19.7276C38.4547 9.18401 29.9074 0.636719 19.3638 0.636719V38.8185Z" fill="#C1E9FF"/>
<path d="M9.77589 14.1673V6.36426H14.7835V7.5793H11.2423V9.61923H14.4576V10.7897H11.2423V12.9522H14.7835V14.1673H9.77589Z" fill="#58C085"/>
<path d="M12.3611 23.4576C11.6007 23.4576 10.9417 23.2904 10.3841 22.956C9.83374 22.6142 9.4101 22.1423 9.11319 21.5403C8.81628 20.931 8.66783 20.2287 8.66783 19.4335C8.66783 18.6384 8.81628 17.9361 9.11319 17.3267C9.41734 16.7173 9.8446 16.2417 10.395 15.8999C10.9453 15.558 11.6007 15.3871 12.3611 15.3871C13.288 15.3871 14.0448 15.6212 14.6314 16.0894C15.2252 16.5576 15.5945 17.2189 15.7393 18.0736H14.1208C14.0339 17.6574 13.842 17.3341 13.5451 17.1038C13.2482 16.866 12.8499 16.7471 12.3502 16.7471C11.894 16.7471 11.503 16.8585 11.1771 17.0815C10.8512 17.297 10.6014 17.6054 10.4276 18.0067C10.2538 18.408 10.1669 18.8836 10.1669 19.4335C10.1669 19.9834 10.2538 20.4591 10.4276 20.8604C10.6014 21.2617 10.8512 21.5701 11.1771 21.7856C11.503 21.9937 11.894 22.0977 12.3502 22.0977C12.8499 22.0977 13.2482 21.9899 13.5451 21.7744C13.842 21.5589 14.0339 21.2542 14.1208 20.8604H15.7393C15.5945 21.6704 15.2252 22.3058 14.6314 22.7665C14.0448 23.2273 13.288 23.4576 12.3611 23.4576Z" fill="#58C085"/>
<path d="M12.1995 32.6143C11.4536 32.6143 10.7946 32.4433 10.2225 32.1015C9.65039 31.7596 9.20141 31.2877 8.87553 30.6858C8.54966 30.0764 8.38672 29.3741 8.38672 28.579C8.38672 27.7838 8.54966 27.0853 8.87553 26.4833C9.20141 25.8739 9.65039 25.3983 10.2225 25.0565C10.7946 24.7146 11.4536 24.5437 12.1995 24.5437C12.9598 24.5437 13.6261 24.7146 14.1982 25.0565C14.7775 25.3983 15.2265 25.8739 15.5451 26.4833C15.8638 27.0853 16.0231 27.7838 16.0231 28.579C16.0231 29.3741 15.8638 30.0764 15.5451 30.6858C15.2265 31.2877 14.7775 31.7596 14.1982 32.1015C13.6261 32.4433 12.9598 32.6143 12.1995 32.6143ZM12.2103 31.2654C12.681 31.2654 13.0902 31.1577 13.4378 30.9422C13.7854 30.7192 14.0533 30.4071 14.2416 30.0058C14.4372 29.6045 14.5349 29.1289 14.5349 28.579C14.5349 28.0216 14.4372 27.546 14.2416 27.1521C14.0533 26.7508 13.7854 26.4424 13.4378 26.2269C13.0902 26.0114 12.681 25.9037 12.2103 25.9037C11.7396 25.9037 11.3305 26.0114 10.9829 26.2269C10.6353 26.4424 10.3637 26.7508 10.1682 27.1521C9.97989 27.546 9.88575 28.0216 9.88575 28.579C9.88575 29.1289 9.97989 29.6045 10.1682 30.0058C10.3637 30.4071 10.6353 30.7192 10.9829 30.9422C11.3305 31.1577 11.7396 31.2654 12.2103 31.2654Z" fill="#58C085"/>
</g>
<defs>
<clipPath id="clip0_574_20213">
<rect x="0.36377" y="0.727539" width="38.1818" height="38.1818" rx="19.0909" fill="white"/>
</clipPath>
</defs>
</svg>
