<svg width="39" height="39" viewBox="0 0 39 39" fill="none" xmlns="http://www.w3.org/2000/svg">
<g clip-path="url(#clip0_574_20208)">
<rect x="0.63623" y="0.636719" width="38.1818" height="38.1818" rx="19.0909" fill="#BBEBFB"/>
<path d="M19.977 29.2728C18.5403 29.2728 17.3036 28.8786 16.2668 28.0902C15.23 27.3018 14.4302 26.2134 13.8674 24.8251C13.3194 23.4196 13.0454 21.7999 13.0454 19.966C13.0454 18.1321 13.3194 16.5209 13.8674 15.1326C14.4302 13.7272 15.2226 12.6302 16.2446 11.8418C17.2814 11.0534 18.5255 10.6592 19.977 10.6592C21.4136 10.6592 22.643 11.0534 23.6649 11.8418C24.7017 12.6302 25.4941 13.7272 26.0421 15.1326C26.6049 16.5209 26.8863 18.1321 26.8863 19.966C26.8863 21.7999 26.6049 23.4196 26.0421 24.8251C25.4941 26.2134 24.7017 27.3018 23.6649 28.0902C22.643 28.8786 21.4136 29.2728 19.977 29.2728ZM19.977 26.162C20.7471 26.162 21.421 25.9134 21.9987 25.4164C22.5763 24.9022 23.028 24.1823 23.3539 23.2568C23.6797 22.3313 23.8427 21.2343 23.8427 19.966C23.8427 18.6805 23.6797 17.5836 23.3539 16.6752C23.028 15.7496 22.5763 15.0384 21.9987 14.5413C21.421 14.0443 20.7471 13.7957 19.977 13.7957C19.2216 13.7957 18.5477 14.0443 17.9553 14.5413C17.3776 15.0384 16.9259 15.7496 16.6001 16.6752C16.2742 17.5836 16.1113 18.6805 16.1113 19.966C16.1113 21.2343 16.2742 22.3313 16.6001 23.2568C16.9259 24.1823 17.3776 24.9022 17.9553 25.4164C18.5477 25.9134 19.2216 26.162 19.977 26.162Z" fill="#2A51D3"/>
</g>
<defs>
<clipPath id="clip0_574_20208">
<rect x="0.727051" y="0.727539" width="38.1818" height="38.1818" rx="19.0909" fill="white"/>
</clipPath>
</defs>
</svg>
