<svg width="48" height="48" viewBox="0 0 48 48" fill="none" xmlns="http://www.w3.org/2000/svg">
<g clip-path="url(#clip0_711_6000)">
<rect width="48" height="48" rx="24" fill="#ECEFF1"/>
<path fill-rule="evenodd" clip-rule="evenodd" d="M15.6684 21.8301H18.2022H20.5512H23.085C24.0271 21.8301 24.3769 22.3474 24.6593 23.2445L25.5664 26.1332C25.6838 26.0082 25.8513 25.9282 26.0362 25.9282H27.0082C27.3606 25.9282 27.648 26.2156 27.648 26.568C27.648 26.9203 27.3606 27.2102 27.0082 27.2102H26.1136L27.1107 28.4196C27.563 28.9694 27.543 29.674 27.543 30.3862V32.7252C27.543 33.6672 27.1332 33.9996 26.1936 33.9996H20.5512H18.2022H12.5598C11.6202 33.9996 11.2104 33.6672 11.2104 32.7252V30.3862C11.2104 29.674 11.1904 28.9694 11.6427 28.4196L12.6398 27.2102H11.7452C11.3928 27.2102 11.1055 26.9203 11.1055 26.568C11.1055 26.2156 11.3928 25.9282 11.7452 25.9282H12.7172C12.9022 25.9282 13.0696 26.0082 13.187 26.1332L14.0941 23.2445C14.374 22.3474 14.7263 21.8301 15.6684 21.8301ZM31.0914 29.3292L32.8356 29.9789C33.018 30.0464 33.1055 30.2613 33.033 30.4562L32.5157 31.8431C32.3708 32.2329 31.956 32.4428 31.5937 32.3053L30.5067 31.9005C30.1443 31.7656 29.9669 31.3358 30.1118 30.946L30.6291 29.5591C30.7016 29.3642 30.909 29.2617 31.0914 29.3292ZM27.8179 14.4934L30.1943 15.378L32.3933 16.2002L34.7697 17.0848C35.6518 17.4146 35.7992 18.0218 35.7518 18.9614L35.5918 21.985C35.7443 21.9076 35.9292 21.8901 36.1016 21.9551L37.0137 22.2949C37.3435 22.4173 37.511 22.7897 37.3885 23.1195C37.2661 23.4494 36.8962 23.6168 36.5639 23.4944L35.7293 23.182L36.239 24.6663C36.4714 25.3385 36.2041 25.9932 35.9567 26.6579L35.1395 28.8519C34.8097 29.7315 34.3124 29.9014 33.4303 29.5716L28.8074 27.8499C28.695 27.8074 28.615 27.7299 28.57 27.62C28.5251 27.51 28.5276 27.3976 28.5775 27.2901C28.68 27.0702 28.735 26.8253 28.735 26.568C28.735 25.6159 27.9603 24.8412 27.0082 24.8412H26.6034C26.421 24.8412 26.2661 24.7263 26.2111 24.5514L25.6988 22.9196C25.2865 21.6052 24.5594 20.7431 23.085 20.7431H21.3483C21.2034 20.7431 21.0759 20.6731 20.9985 20.5482C20.9235 20.4257 20.916 20.2808 20.9785 20.1509C21.1559 19.7885 21.3833 19.4712 21.7456 19.2613L23.1025 18.4741L22.2654 18.1618C21.9355 18.0393 21.7656 17.6695 21.8881 17.3397C22.013 17.0098 22.3828 16.8399 22.7127 16.9623L23.6223 17.3022C23.7972 17.3671 23.9246 17.4996 23.9896 17.6595L25.8488 15.2681C26.426 14.5259 26.9383 14.1661 27.8179 14.4934ZM33.5553 25.0786C34.2175 25.326 34.5548 26.0632 34.3074 26.7254C34.06 27.3876 33.3229 27.7249 32.6607 27.4775C31.9985 27.2302 31.6611 26.493 31.9085 25.8308C32.1559 25.1686 32.8931 24.8312 33.5553 25.0786ZM27.6679 15.5805L30.919 16.7924L34.17 18.0068C34.5698 18.1543 34.6048 18.4192 34.5773 18.694L34.3024 21.4078C34.2475 21.9626 33.8901 22.005 33.6352 21.9101L29.5771 20.3958L25.5164 18.8839C25.2615 18.789 25.0191 18.5216 25.3415 18.0668L26.9108 15.8353C27.0707 15.6104 27.2706 15.433 27.6679 15.5805ZM23.2949 16.4401L23.135 16.4076L22.9426 16.3676C22.7252 16.3251 22.5803 16.1227 22.6052 15.9003L22.6277 15.7104L22.7552 14.6034L20.6636 15.468L20.5587 15.513C20.4187 15.5705 20.2738 15.553 20.1514 15.468L20.0564 15.4005L17.2302 13.4239L17.6125 16.4551L17.635 16.6475C17.6625 16.8674 17.5176 17.0723 17.3002 17.1173L17.1102 17.1572L14.4989 17.7145L16.7354 19.1438L16.9403 19.2738C17.0453 19.3437 17.1127 19.4437 17.1302 19.5711C17.1502 19.6961 17.1027 19.801 17.0353 19.9085L16.3331 21.0355C16.2681 21.1429 16.1432 21.1904 16.0182 21.1879L14.7163 21.1654C14.6838 21.1654 14.6514 21.1504 14.6389 21.1179C14.6239 21.0879 14.6289 21.0555 14.6489 21.028L15.4335 19.826L12.3699 17.7345C12.23 17.637 12.16 17.4746 12.1925 17.3047C12.2225 17.1372 12.3424 17.0098 12.5073 16.9673L16.2731 16.0302L15.7858 12.1545L15.7259 11.6847C15.7059 11.5123 15.7808 11.3549 15.9283 11.2649C16.0782 11.1775 16.2531 11.1825 16.3956 11.2824L16.7829 11.5523L20.4987 14.1536L23.2749 13.0066L23.6073 12.8692C23.7497 12.8092 23.9022 12.8292 24.0271 12.9242C24.152 13.0166 24.212 13.1591 24.1945 13.314L24.152 13.6688L23.9646 15.2756L24.3669 15.3581C24.4119 15.3655 24.4444 15.3955 24.4619 15.4355C24.4769 15.478 24.4744 15.528 24.4444 15.558L23.7247 16.2776C23.6048 16.3976 23.4599 16.475 23.2949 16.4401ZM23.9146 34.5868H25.7788C25.9712 34.5868 26.1311 34.7592 26.1311 34.9666V36.446C26.1311 36.8608 25.8138 37.2031 25.4265 37.2031H24.267C23.8797 37.2031 23.5648 36.8608 23.5648 36.446V34.9666C23.5648 34.7592 23.7222 34.5868 23.9146 34.5868ZM12.9746 34.5868H14.8363C15.0312 34.5868 15.1886 34.7592 15.1886 34.9666V36.446C15.1886 36.8608 14.8738 37.2031 14.4864 37.2031H13.327C12.9396 37.2031 12.6223 36.8608 12.6223 36.446V34.9666C12.6223 34.7592 12.7822 34.5868 12.9746 34.5868ZM14.0116 29.744C14.7188 29.744 15.2936 30.3188 15.2936 31.0259C15.2936 31.7331 14.7188 32.3053 14.0116 32.3053C13.3045 32.3053 12.7322 31.7331 12.7322 31.0259C12.7322 30.3188 13.3045 29.744 14.0116 29.744ZM24.7393 29.744C25.4489 29.744 26.0212 30.3188 26.0212 31.0259C26.0212 31.7331 25.4489 32.3053 24.7393 32.3053C24.0321 32.3053 23.4599 31.7331 23.4599 31.0259C23.4599 30.3188 24.0321 29.744 24.7393 29.744ZM15.9058 22.9021H19.3767H22.8451C23.2724 22.9021 23.3949 23.137 23.4674 23.4044L24.1595 26.0432C24.2995 26.583 23.9796 26.7479 23.7072 26.7479H19.3767H15.0437C14.7713 26.7479 14.4514 26.583 14.5939 26.0432L15.2861 23.4044C15.356 23.137 15.481 22.9021 15.9058 22.9021Z" fill="#9D00FF"/>
</g>
<defs>
<clipPath id="clip0_711_6000">
<rect width="48" height="48" rx="24" fill="white"/>
</clipPath>
</defs>
</svg>
