<svg width="24" height="25" viewBox="0 0 24 25" fill="none" xmlns="http://www.w3.org/2000/svg">
<path fill-rule="evenodd" clip-rule="evenodd" d="M11.8255 2.09749C11.9418 2.0873 12.0587 2.0873 12.175 2.09749C12.3087 2.10922 12.4362 2.13775 12.5374 2.1604L19.9909 3.81676C20.1913 3.86127 20.3906 3.90552 20.559 3.95614C20.747 4.01264 20.9609 4.09474 21.1693 4.24489C21.4637 4.45694 21.6948 4.74507 21.838 5.07841C21.9393 5.31443 21.973 5.54108 21.9874 5.73684C22.0003 5.91225 22.0003 6.11633 22.0003 6.32163V7.49748C22.0003 7.74978 22.0003 7.99558 21.9833 8.20368C21.9646 8.43227 21.9206 8.70201 21.7823 8.97343C21.5905 9.34975 21.2846 9.65572 20.9082 9.84746C20.6368 9.98576 20.3671 10.0298 20.1385 10.0485C20.094 10.0521 20.0478 10.055 20.0002 10.0572V16.0736C20.0478 16.0759 20.094 16.0787 20.1385 16.0824C20.3671 16.1011 20.6368 16.1451 20.9082 16.2834C21.2846 16.4752 21.5905 16.7811 21.7823 17.1575C21.9206 17.4289 21.9646 17.6986 21.9833 17.9272C22.0003 18.1353 22.0003 18.3812 22.0003 18.6334V19.4975C22.0003 19.7498 22.0003 19.9956 21.9833 20.2037C21.9646 20.4323 21.9206 20.702 21.7823 20.9734C21.5905 21.3497 21.2846 21.6557 20.9082 21.8474C20.6368 21.9857 20.3671 22.0298 20.1385 22.0485C19.9303 22.0655 19.6845 22.0655 19.4321 22.0654H4.56835C4.31597 22.0655 4.07018 22.0655 3.86202 22.0485C3.63343 22.0298 3.36369 21.9857 3.09227 21.8474C2.71594 21.6557 2.40998 21.3497 2.21824 20.9734C2.07994 20.702 2.03587 20.4323 2.01719 20.2037C2.00019 19.9955 2.00022 19.7497 2.00025 19.4973L2.00025 18.6335C2.00022 18.3812 2.00019 18.1354 2.01719 17.9272C2.03587 17.6986 2.07994 17.4289 2.21824 17.1575C2.40998 16.7811 2.71594 16.4752 3.09227 16.2834C3.36369 16.1451 3.63343 16.1011 3.86202 16.0824C3.90648 16.0787 3.95265 16.0759 4.00024 16.0736V10.0572C3.95265 10.055 3.90648 10.0521 3.86202 10.0485C3.63343 10.0298 3.36369 9.98576 3.09227 9.84746C2.71594 9.65571 2.40998 9.34975 2.21824 8.97343C2.07994 8.70201 2.03587 8.43227 2.01719 8.20368C2.00019 7.99552 2.00022 7.74972 2.00025 7.49734L2.00025 6.32162C2.00022 6.11633 2.0002 5.91225 2.01308 5.73684C2.02746 5.54108 2.06119 5.31443 2.16255 5.07841C2.3057 4.74507 2.53683 4.45694 2.83118 4.24488C3.03959 4.09474 3.25353 4.01264 3.44151 3.95614C3.60994 3.90551 3.80917 3.86127 4.00958 3.81676L11.4631 2.1604C11.5643 2.13775 11.6918 2.10922 11.8255 2.09749ZM6.00024 10.0655V16.0654H8.50024V10.0655H6.00024ZM10.5002 10.0655V16.0654H13.5002V10.0655L10.5002 10.0655ZM15.5002 10.0655V16.0654H18.0002V10.0655H15.5002Z" fill="#364A59"/>
</svg>
