<svg width="24" height="24" viewBox="0 0 24 24" fill="none" xmlns="http://www.w3.org/2000/svg">
<path fill-rule="evenodd" clip-rule="evenodd" d="M2.49976 8C3.05204 8 3.49976 7.55228 3.49976 7V5.2C3.49976 4.53726 4.03701 4 4.69976 4H19.2998C19.9625 4 20.4998 4.53726 20.4998 5.2V7C20.4998 7.55228 20.9475 8 21.4998 8C22.052 8 22.4998 7.55228 22.4998 7V5C22.4998 3.34315 21.1566 2 19.4998 2H4.49976C2.8429 2 1.49976 3.34315 1.49976 5V7C1.49976 7.55228 1.94747 8 2.49976 8ZM7.89976 5.5C6.57427 5.5 5.49976 6.57452 5.49976 7.9V19.6C5.49976 20.9255 6.57427 22 7.89976 22H16.0998C17.4252 22 18.4998 20.9255 18.4998 19.6V7.9C18.4998 6.57452 17.4252 5.5 16.0998 5.5H7.89976ZM11.9998 12C13.3805 12 14.4998 13.1193 14.4998 14.5C14.4998 15.8807 13.3805 17 11.9998 17C10.6191 17 9.49976 15.8807 9.49976 14.5C9.49976 13.1193 10.6191 12 11.9998 12Z" fill="#364A59"/>
</svg>
