<svg width="20" height="20" viewBox="0 0 20 20" fill="none" xmlns="http://www.w3.org/2000/svg">
<path d="M10.9751 19.9V17.9C11.6751 17.8 12.3543 17.6083 13.0126 17.325C13.671 17.0417 14.2918 16.6833 14.8751 16.25L16.3251 17.7C15.5418 18.3167 14.7001 18.8125 13.8001 19.1875C12.9001 19.5625 11.9585 19.8 10.9751 19.9ZM17.7251 16.25L16.3251 14.85C16.7585 14.3 17.1085 13.6958 17.3751 13.0375C17.6418 12.3792 17.8251 11.6833 17.9251 10.95H19.9751C19.8418 11.9833 19.5876 12.9458 19.2126 13.8375C18.8376 14.7292 18.3418 15.5333 17.7251 16.25ZM17.9251 8.95C17.8251 8.2 17.6418 7.49583 17.3751 6.8375C17.1085 6.17917 16.7585 5.58333 16.3251 5.05L17.7251 3.65C18.3585 4.38333 18.871 5.2 19.2626 6.1C19.6543 7 19.8918 7.95 19.9751 8.95H17.9251ZM8.97515 19.9C6.42515 19.6 4.29598 18.5083 2.58765 16.625C0.879313 14.7417 0.0251465 12.5167 0.0251465 9.95C0.0251465 7.36667 0.879313 5.13333 2.58765 3.25C4.29598 1.36667 6.42515 0.283333 8.97515 0V2C6.97515 2.28333 5.31681 3.175 4.00015 4.675C2.68348 6.175 2.02515 7.93333 2.02515 9.95C2.02515 11.9667 2.68348 13.7208 4.00015 15.2125C5.31681 16.7042 6.97515 17.6 8.97515 17.9V19.9ZM14.9251 3.65C14.3251 3.2 13.6918 2.83333 13.0251 2.55C12.3585 2.26667 11.6751 2.08333 10.9751 2V0C11.9585 0.0833333 12.9001 0.3125 13.8001 0.6875C14.7001 1.0625 15.5418 1.56667 16.3251 2.2L14.9251 3.65ZM10.0001 14.95C9.03348 14.1333 8.12515 13.2583 7.27515 12.325C6.42515 11.3917 6.00015 10.3 6.00015 9.05C6.00015 7.91667 6.38765 6.95 7.16265 6.15C7.93765 5.35 8.88348 4.95 10.0001 4.95C11.1168 4.95 12.0626 5.35 12.8376 6.15C13.6126 6.95 14.0001 7.91667 14.0001 9.05C14.0001 10.3 13.5751 11.3917 12.7251 12.325C11.8751 13.2583 10.9668 14.1333 10.0001 14.95ZM10.0001 9.95C10.3001 9.95 10.5543 9.84583 10.7626 9.6375C10.971 9.42917 11.0751 9.175 11.0751 8.875C11.0751 8.59167 10.971 8.34167 10.7626 8.125C10.5543 7.90833 10.3001 7.8 10.0001 7.8C9.70015 7.8 9.44598 7.90833 9.23765 8.125C9.02931 8.34167 8.92515 8.59167 8.92515 8.875C8.92515 9.175 9.02931 9.42917 9.23765 9.6375C9.44598 9.84583 9.70015 9.95 10.0001 9.95Z" fill="#445D6F"/>
</svg>
