<svg width="48" height="48" viewBox="0 0 48 48" fill="none" xmlns="http://www.w3.org/2000/svg">
<g clip-path="url(#clip0_711_6821)">
<rect width="48" height="48" rx="24" fill="#ECEFF1"/>
<path d="M19.4001 32.6633C19.4001 32.8771 19.3158 33.0822 19.1658 33.2334C19.0158 33.3846 18.8123 33.4696 18.6001 33.4696H13.8001C13.5879 33.4696 13.3845 33.3846 13.2344 33.2334C13.0844 33.0822 13.0001 32.8771 13.0001 32.6633C13.0001 32.4494 13.0844 32.2443 13.2344 32.0931C13.3845 31.9419 13.5879 31.857 13.8001 31.857H15.4001V26.6158H17.0001V31.857H18.6001C18.8123 31.857 19.0158 31.9419 19.1658 32.0931C19.3158 32.2443 19.4001 32.4494 19.4001 32.6633ZM35.4001 31.857H33.8001V26.6158H32.2001V31.857H30.6001C30.3879 31.857 30.1844 31.9419 30.0344 32.0931C29.8844 32.2443 29.8001 32.4494 29.8001 32.6633C29.8001 32.8771 29.8844 33.0822 30.0344 33.2334C30.1844 33.3846 30.3879 33.4696 30.6001 33.4696H35.4001C35.6122 33.4696 35.8157 33.3846 35.9658 33.2334C36.1158 33.0822 36.2001 32.8771 36.2001 32.6633C36.2001 32.4494 36.1158 32.2443 35.9658 32.0931C35.8157 31.9419 35.6122 31.857 35.4001 31.857ZM36.6001 19.3468V23.4026C36.5995 23.827 36.4321 24.2338 36.1344 24.5338C35.8367 24.8339 35.4331 25.0027 35.0121 25.0032H14.1881C13.9265 25.004 13.6688 24.9391 13.4383 24.8143C13.2078 24.6895 13.0118 24.5087 12.8681 24.2884C12.6924 24.0271 12.599 23.7183 12.6001 23.4026V19.3468C12.6006 18.9225 12.7681 18.5157 13.0658 18.2157C13.3635 17.9156 13.7671 17.7468 14.1881 17.7463H15.4001V16.5368C15.4001 16.3229 15.4844 16.1179 15.6344 15.9666C15.7844 15.8154 15.9879 15.7305 16.2001 15.7305C16.4123 15.7305 16.6158 15.8154 16.7658 15.9666C16.9158 16.1179 17.0001 16.3229 17.0001 16.5368V17.7463H32.2001V16.5368C32.2001 16.3229 32.2844 16.1179 32.4344 15.9666C32.5844 15.8154 32.7879 15.7305 33.0001 15.7305C33.2122 15.7305 33.4157 15.8154 33.5658 15.9666C33.7158 16.1179 33.8001 16.3229 33.8001 16.5368V17.7463H35.0121C35.223 17.7461 35.4318 17.7885 35.6263 17.8709C35.8207 17.9534 35.9967 18.0743 36.1441 18.2264C36.1585 18.2418 36.1721 18.2571 36.1841 18.2728C36.4537 18.5642 36.6025 18.9484 36.6001 19.3468ZM30.6069 23.393L34.4833 19.3468H33.1129C33.0756 19.3535 33.0379 19.3576 33.0001 19.3589C32.9627 19.3578 32.9254 19.3541 32.8885 19.3476H29.9285L26.0509 23.3958L30.6069 23.393ZM19.2733 23.3998L23.1497 19.3537L18.5929 19.3561L14.7169 23.4026L19.2733 23.3998Z" fill="#9D00FF"/>
</g>
<defs>
<clipPath id="clip0_711_6821">
<rect width="48" height="48" rx="24" fill="white"/>
</clipPath>
</defs>
</svg>
