<svg width="48" height="48" viewBox="0 0 48 48" fill="none" xmlns="http://www.w3.org/2000/svg">
<g clip-path="url(#clip0_1537_2058)">
<rect width="48" height="48" rx="24" fill="#ECEFF1"/>
<path d="M19.3996 32.6633C19.3996 32.8771 19.3153 33.0822 19.1653 33.2334C19.0153 33.3846 18.8118 33.4696 18.5996 33.4696H13.7996C13.5874 33.4696 13.384 33.3846 13.2339 33.2334C13.0839 33.0822 12.9996 32.8771 12.9996 32.6633C12.9996 32.4494 13.0839 32.2443 13.2339 32.0931C13.384 31.9419 13.5874 31.857 13.7996 31.857H15.3996V26.6158H16.9996V31.857H18.5996C18.8118 31.857 19.0153 31.9419 19.1653 32.0931C19.3153 32.2443 19.3996 32.4494 19.3996 32.6633ZM35.3996 31.857H33.7996V26.6158H32.1996V31.857H30.5996C30.3874 31.857 30.1839 31.9419 30.0339 32.0931C29.8839 32.2443 29.7996 32.4494 29.7996 32.6633C29.7996 32.8771 29.8839 33.0822 30.0339 33.2334C30.1839 33.3846 30.3874 33.4696 30.5996 33.4696H35.3996C35.6118 33.4696 35.8152 33.3846 35.9653 33.2334C36.1153 33.0822 36.1996 32.8771 36.1996 32.6633C36.1996 32.4494 36.1153 32.2443 35.9653 32.0931C35.8152 31.9419 35.6118 31.857 35.3996 31.857ZM36.5996 19.3468V23.4026C36.5991 23.827 36.4316 24.2338 36.1339 24.5338C35.8362 24.8339 35.4326 25.0027 35.0116 25.0032H14.1876C13.926 25.004 13.6683 24.9391 13.4378 24.8143C13.2073 24.6895 13.0113 24.5087 12.8676 24.2884C12.6919 24.0271 12.5985 23.7183 12.5996 23.4026V19.3468C12.6001 18.9225 12.7676 18.5157 13.0653 18.2157C13.363 17.9156 13.7666 17.7468 14.1876 17.7463H15.3996V16.5368C15.3996 16.3229 15.4839 16.1179 15.6339 15.9666C15.784 15.8154 15.9874 15.7305 16.1996 15.7305C16.4118 15.7305 16.6153 15.8154 16.7653 15.9666C16.9153 16.1179 16.9996 16.3229 16.9996 16.5368V17.7463H32.1996V16.5368C32.1996 16.3229 32.2839 16.1179 32.4339 15.9666C32.5839 15.8154 32.7874 15.7305 32.9996 15.7305C33.2118 15.7305 33.4152 15.8154 33.5653 15.9666C33.7153 16.1179 33.7996 16.3229 33.7996 16.5368V17.7463H35.0116C35.2225 17.7461 35.4314 17.7885 35.6258 17.8709C35.8202 17.9534 35.9963 18.0743 36.1436 18.2264C36.158 18.2418 36.1716 18.2571 36.1836 18.2728C36.4532 18.5642 36.6021 18.9484 36.5996 19.3468ZM30.6064 23.393L34.4828 19.3468H33.1124C33.0751 19.3535 33.0374 19.3576 32.9996 19.3589C32.9622 19.3578 32.9249 19.3541 32.888 19.3476H29.928L26.0504 23.3958L30.6064 23.393ZM19.2728 23.3998L23.1492 19.3537L18.5924 19.3561L14.7164 23.4026L19.2728 23.3998Z" fill="#FFA500"/>
</g>
<defs>
<clipPath id="clip0_1537_2058">
<rect width="48" height="48" rx="24" fill="white"/>
</clipPath>
</defs>
</svg>
