<svg width="40" height="40" viewBox="0 0 40 40" fill="none" xmlns="http://www.w3.org/2000/svg">
<g clip-path="url(#clip0_534_2881)">
<rect width="40" height="40" rx="20" fill="#FE714A"/>
<path d="M18.6 14.15C19.746 14.15 20.675 13.221 20.675 12.075C20.675 10.929 19.746 10 18.6 10C17.454 10 16.525 10.929 16.525 12.075C16.525 13.221 17.454 14.15 18.6 14.15Z" fill="white"/>
<path d="M30.025 25.2498C29.7 24.7748 29.05 24.6748 28.575 24.9998L27.725 25.5998L25.3 22.1248C25.125 21.7998 24.775 21.5748 24.375 21.5748H20.025V20.1498H23.55C24.125 20.1498 24.575 19.6748 24.575 19.0998C24.575 18.5248 24.1 18.0748 23.55 18.0748H20.025V15.9998C20.025 15.1998 19.4 14.5498 18.6 14.5498C17.8 14.5498 17.175 15.1998 17.175 15.9998V22.5998C17.175 23.1748 17.625 23.6248 18.2 23.6248H23.85C23.85 23.6248 26.825 27.8248 26.975 27.8998C27.325 28.0998 27.75 28.0998 28.1 27.8498L29.8 26.6748C30.225 26.3498 30.35 25.6998 30.025 25.2498Z" fill="white"/>
<path d="M19.7 28.35C17.2 28.35 15.15 26.3 15.15 23.8C15.15 22.425 15.75 21.2 16.725 20.375V18.375C14.825 19.425 13.5 21.475 13.5 23.825C13.5 27.225 16.275 30 19.7 30C22.175 30 24.3 28.55 25.3 26.475L24.125 24.825C23.675 26.825 21.875 28.35 19.7 28.35Z" fill="white"/>
</g>
<defs>
<clipPath id="clip0_534_2881">
<rect width="40" height="40" rx="20" fill="white"/>
</clipPath>
</defs>
</svg>
