<svg width="40" height="40" viewBox="0 0 40 40" fill="none" xmlns="http://www.w3.org/2000/svg">
<g clip-path="url(#clip0_534_3160)">
<rect width="40" height="40" rx="20" fill="#B133FF"/>
<path d="M6 25V16H11.9781V17.4014H7.76982V19.8057H11.1522V21.1686H7.76982V25H6Z" fill="white"/>
<path d="M12.875 25V16H16.3097C17.0439 16 17.6513 16.1243 18.132 16.3729C18.6214 16.6214 18.9841 16.9557 19.2201 17.3757C19.4561 17.7871 19.5741 18.2457 19.5741 18.7514C19.5741 19.2314 19.4561 19.6814 19.2201 20.1014C18.9929 20.5129 18.6389 20.8471 18.1582 21.1043C17.6775 21.3529 17.0526 21.4771 16.2835 21.4771H14.6448V25H12.875ZM17.6338 25L15.746 21.04H17.6601L19.6527 25H17.6338ZM14.6448 20.2171H16.2049C16.738 20.2171 17.1313 20.0886 17.3847 19.8314C17.6382 19.5743 17.7649 19.2357 17.7649 18.8157C17.7649 18.3957 17.6382 18.0657 17.3847 17.8257C17.14 17.5771 16.7424 17.4529 16.1918 17.4529H14.6448V20.2171Z" fill="white"/>
<path d="M20.7229 25V16H26.7666V17.4014H22.4928V19.7543H26.3733V21.1043H22.4928V23.5986H26.7666V25H20.7229Z" fill="white"/>
<path d="M27.9564 25V16H34V17.4014H29.7262V19.7543H33.6067V21.1043H29.7262V23.5986H34V25H27.9564Z" fill="white"/>
</g>
<defs>
<clipPath id="clip0_534_3160">
<rect width="40" height="40" rx="20" fill="white"/>
</clipPath>
</defs>
</svg>
