<svg width="40" height="40" viewBox="0 0 40 40" fill="none" xmlns="http://www.w3.org/2000/svg">
<g clip-path="url(#clip0_534_507)">
<rect width="40" height="40" rx="20" fill="#14C46F"/>
<path d="M14.5 28V12H20.3477C21.6077 12 22.6453 12.221 23.4605 12.6629C24.2906 13.0895 24.9058 13.6762 25.306 14.4229C25.721 15.1695 25.9286 16.0152 25.9286 16.96C25.9286 17.8286 25.7285 18.6362 25.3282 19.3829C24.9428 20.1295 24.3351 20.739 23.505 21.2114C22.6897 21.6686 21.6373 21.8971 20.3477 21.8971H17.5017V28H14.5ZM17.5017 19.4057H20.1698C21.1185 19.4057 21.8004 19.1848 22.2154 18.7429C22.6453 18.301 22.8602 17.7067 22.8602 16.96C22.8602 16.1829 22.6453 15.581 22.2154 15.1543C21.8004 14.7276 21.1185 14.5143 20.1698 14.5143H17.5017V19.4057Z" fill="white"/>
</g>
<defs>
<clipPath id="clip0_534_507">
<rect width="40" height="40" rx="20" fill="white"/>
</clipPath>
</defs>
</svg>
