<svg width="22" height="22" viewBox="0 0 22 22" fill="none" xmlns="http://www.w3.org/2000/svg">
<g clip-path="url(#clip0_788_12917)">
<rect width="22" height="22" rx="11" fill="#14C46F"/>
<path d="M7.97461 15.4001V6.6001H11.1908C11.8838 6.6001 12.4545 6.72162 12.9029 6.96467C13.3595 7.19934 13.6978 7.522 13.9179 7.93267C14.1462 8.34334 14.2603 8.80848 14.2603 9.3281C14.2603 9.80581 14.1503 10.25 13.9301 10.6607C13.7182 11.0713 13.3839 11.4066 12.9274 11.6664C12.479 11.9178 11.9001 12.0435 11.1908 12.0435H9.62553V15.4001H7.97461ZM9.62553 10.6732H11.093C11.6148 10.6732 11.9898 10.5517 12.2181 10.3087C12.4545 10.0656 12.5727 9.73876 12.5727 9.3281C12.5727 8.90067 12.4545 8.56962 12.2181 8.33495C11.9898 8.10029 11.6148 7.98295 11.093 7.98295H9.62553V10.6732Z" fill="white"/>
</g>
<defs>
<clipPath id="clip0_788_12917">
<rect width="22" height="22" rx="11" fill="white"/>
</clipPath>
</defs>
</svg>
