<svg width="24" height="25" viewBox="0 0 24 25" fill="none" xmlns="http://www.w3.org/2000/svg">
<path fill-rule="evenodd" clip-rule="evenodd" d="M3.5 10.3822C3.5 5.78234 7.34388 2.06445 11.9934 2.06445C16.6561 2.06445 20.5 5.78234 20.5 10.3822C20.5 12.7001 19.657 14.8521 18.2695 16.676C16.7388 18.688 14.8522 20.4409 12.7285 21.8169C12.2425 22.1349 11.8039 22.1589 11.2704 21.8169C9.13474 20.4409 7.24809 18.688 5.7305 16.676C4.34198 14.8521 3.5 12.7001 3.5 10.3822ZM9.19423 10.6412C9.19423 12.1822 10.4517 13.3941 11.9934 13.3941C13.5362 13.3941 14.8058 12.1822 14.8058 10.6412C14.8058 9.11225 13.5362 7.84129 11.9934 7.84129C10.4517 7.84129 9.19423 9.11225 9.19423 10.6412Z" fill="#364A59"/>
</svg>
