<svg width="48" height="48" viewBox="0 0 48 48" fill="none" xmlns="http://www.w3.org/2000/svg">
<g clip-path="url(#clip0_1537_2044)">
<rect width="48" height="48" rx="24" fill="#ECEFF1"/>
<path d="M23.9999 19.9952C27.3561 19.9952 30.0769 19.3728 30.0769 18.605C30.0769 17.8372 27.3561 17.2148 23.9999 17.2148C20.6436 17.2148 17.9229 17.8372 17.9229 18.605C17.9229 19.3728 20.6436 19.9952 23.9999 19.9952Z" fill="#1E90FF"/>
<path d="M24.0001 20.4085C22.543 20.4085 20.2769 20.2616 18.7769 19.8047C18.7766 19.8265 18.7754 19.8485 18.7754 19.8703C18.7754 22.7561 21.1146 25.095 24.0004 25.095C26.8859 25.095 29.2248 22.7558 29.2248 19.8703C29.2248 19.8482 29.2235 19.8265 29.2229 19.8047C27.7236 20.2613 25.4568 20.4085 24.0001 20.4085Z" fill="#1E90FF"/>
<path d="M30.6415 13.8825C30.4554 12.0227 28.4385 14.2539 26.6909 13.0324C24.9436 11.8105 25.101 10.8008 24.0002 10.8008C22.899 10.8008 23.0564 11.8105 21.3091 13.0324C19.5615 14.2543 17.5446 12.0227 17.3589 13.8825C17.2447 15.0213 18.1185 16.6168 18.3154 17.6838C19.4884 17.0598 21.5953 16.6436 24.0005 16.6436C26.4047 16.6436 28.5119 17.0598 29.6849 17.6838C29.8815 16.6165 30.7553 15.0213 30.6415 13.8825ZM25.0808 14.1451C25.2709 14.6338 25.0905 15.3757 24.2577 15.6653C24.2577 15.6653 24.1308 15.7104 23.9995 15.7828C23.8686 15.7104 23.7417 15.6653 23.7417 15.6653C22.9093 15.3757 22.7285 14.6338 22.9186 14.1451C23.1083 13.6564 22.9186 13.3671 22.9186 13.3671C22.9186 13.3671 22.8822 13.3036 22.8234 13.2427L23.1205 12.9985C23.1205 12.9985 23.606 13.2041 23.9995 12.7879C24.3927 13.2041 24.8786 12.9985 24.8786 12.9985L25.176 13.2427C25.1172 13.3036 25.0805 13.3671 25.0805 13.3671C25.0805 13.3671 24.8908 13.6564 25.0808 14.1451Z" fill="#1E90FF"/>
<path d="M19.0101 31.4866L18.7747 30.7773L18.5389 31.4866L17.792 31.4912L18.3933 31.9345L18.1671 32.6466L18.7747 32.212L19.3819 32.6466L19.1557 31.9345L19.7573 31.4912L19.0101 31.4866Z" fill="#1E90FF"/>
<path d="M32.1975 26.7236C31.5785 26.0656 29.2162 25.4295 27.1856 24.9847C26.2654 25.5732 25.1726 25.916 23.9996 25.916C22.8263 25.916 21.7335 25.5729 20.8137 24.9844C18.7827 25.4295 16.4204 26.0656 15.8014 26.7236C14.661 27.9358 13.7344 36.0624 13.7344 36.0624C13.7344 36.0624 15.3028 37.2028 23.9996 37.2028C32.6968 37.2028 34.2648 36.0624 34.2648 36.0624C34.2648 36.0624 33.3382 27.9358 32.1975 26.7236ZM20.5508 31.4823C20.8631 32.2851 20.5657 33.5036 19.1986 33.9792C19.1986 33.9792 18.9905 34.0532 18.7749 34.1724C18.5597 34.0532 18.3512 33.9792 18.3512 33.9792C16.9838 33.5036 16.6867 32.2851 16.9987 31.4823C17.3107 30.6797 16.9987 30.2044 16.9987 30.2044C16.9987 30.2044 16.9393 30.1005 16.8429 30L17.3309 29.5991C17.3309 29.5991 18.1285 29.9369 18.7749 29.2535C19.4216 29.9369 20.2192 29.5991 20.2192 29.5991L20.707 30C20.6105 30.1005 20.5508 30.2044 20.5508 30.2044C20.5508 30.2044 20.2388 30.6797 20.5508 31.4823Z" fill="#1E90FF"/>
</g>
<defs>
<clipPath id="clip0_1537_2044">
<rect width="48" height="48" rx="24" fill="white"/>
</clipPath>
</defs>
</svg>
