<svg width="48" height="48" viewBox="0 0 48 48" fill="none" xmlns="http://www.w3.org/2000/svg">
<g clip-path="url(#clip0_711_6808)">
<rect width="48" height="48" rx="24" fill="#ECEFF1"/>
<path d="M24.0004 19.9932C27.3566 19.9932 30.0774 19.3708 30.0774 18.6031C30.0774 17.8353 27.3566 17.2129 24.0004 17.2129C20.6441 17.2129 17.9233 17.8353 17.9233 18.6031C17.9233 19.3708 20.6441 19.9932 24.0004 19.9932Z" fill="#9D00FF"/>
<path d="M24.0001 20.4094C22.543 20.4094 20.2769 20.2626 18.7769 19.8057C18.7766 19.8274 18.7754 19.8495 18.7754 19.8713C18.7754 22.7571 21.1146 25.096 24.0004 25.096C26.8859 25.096 29.2248 22.7568 29.2248 19.8713C29.2248 19.8492 29.2235 19.8274 29.2229 19.8057C27.7236 20.2623 25.4568 20.4094 24.0001 20.4094Z" fill="#9D00FF"/>
<path d="M30.642 13.8825C30.4559 12.0227 28.439 14.2539 26.6914 13.0324C24.9441 11.8105 25.1015 10.8008 24.0007 10.8008C22.8995 10.8008 23.0569 11.8105 21.3096 13.0324C19.562 14.2543 17.5451 12.0227 17.3594 13.8825C17.2452 15.0213 18.119 16.6168 18.3159 17.6838C19.4889 17.0598 21.5958 16.6436 24.001 16.6436C26.4052 16.6436 28.5124 17.0598 29.6854 17.6838C29.882 16.6165 30.7558 15.0213 30.642 13.8825ZM25.0813 14.1451C25.2714 14.6338 25.091 15.3757 24.2582 15.6653C24.2582 15.6653 24.1313 15.7104 24 15.7828C23.8691 15.7104 23.7422 15.6653 23.7422 15.6653C22.9097 15.3757 22.729 14.6338 22.9191 14.1451C23.1088 13.6564 22.9191 13.3671 22.9191 13.3671C22.9191 13.3671 22.8827 13.3036 22.8239 13.2427L23.121 12.9985C23.121 12.9985 23.6065 13.2041 24 12.7879C24.3932 13.2041 24.8791 12.9985 24.8791 12.9985L25.1765 13.2427C25.1177 13.3036 25.081 13.3671 25.081 13.3671C25.081 13.3671 24.8912 13.6564 25.0813 14.1451Z" fill="#9D00FF"/>
<path d="M19.0111 31.4856L18.7756 30.7764L18.5398 31.4856L17.793 31.4903L18.3943 31.9335L18.1681 32.6456L18.7756 32.211L19.3828 32.6456L19.1567 31.9335L19.7583 31.4903L19.0111 31.4856Z" fill="#9D00FF"/>
<path d="M32.198 26.7216C31.579 26.0637 29.2167 25.4276 27.1861 24.9827C26.2659 25.5713 25.1731 25.9141 24.0001 25.9141C22.8268 25.9141 21.734 25.571 20.8141 24.9824C18.7832 25.4276 16.4209 26.0637 15.8019 26.7216C14.6615 27.9338 13.7349 36.0605 13.7349 36.0605C13.7349 36.0605 15.3033 37.2009 24.0001 37.2009C32.6972 37.2009 34.2653 36.0605 34.2653 36.0605C34.2653 36.0605 33.3387 27.9338 32.198 26.7216ZM20.5513 31.4803C20.8636 32.2832 20.5662 33.5016 19.1991 33.9773C19.1991 33.9773 18.991 34.0513 18.7754 34.1704C18.5601 34.0513 18.3517 33.9773 18.3517 33.9773C16.9843 33.5016 16.6872 32.2832 16.9992 31.4803C17.3112 30.6778 16.9992 30.2024 16.9992 30.2024C16.9992 30.2024 16.9398 30.0986 16.8434 29.9981L17.3314 29.5971C17.3314 29.5971 18.129 29.9349 18.7754 29.2515C19.4221 29.9349 20.2197 29.5971 20.2197 29.5971L20.7074 29.9981C20.611 30.0986 20.5513 30.2024 20.5513 30.2024C20.5513 30.2024 20.2393 30.6778 20.5513 31.4803Z" fill="#9D00FF"/>
</g>
<defs>
<clipPath id="clip0_711_6808">
<rect width="48" height="48" rx="24" fill="white"/>
</clipPath>
</defs>
</svg>
